<?xml version="1.0" encoding="utf-8"?>
<!-- Generator: Adobe Illustrator 24.0.1, SVG Export Plug-In . SVG Version: 6.00 Build 0)  -->
<svg version="1.1" id="Layer_1" xmlns="http://www.w3.org/2000/svg" xmlns:xlink="http://www.w3.org/1999/xlink" x="0px" y="0px"
	 viewBox="0 0 513.603 464.823" enable-background="new 0 0 513.603 464.823" xml:space="preserve">
<g>
	<path d="M469.889,122.073h-63.858L390.333,0L287.904,122.073h-67.451L118.024,0l-15.697,122.073H43.714
		C19.572,122.073,0,141.645,0,165.787v255.321c0,24.143,19.572,43.714,43.714,43.714h426.174c24.143,0,43.714-19.572,43.714-43.714
		V165.787C513.603,141.645,494.032,122.073,469.889,122.073z M127.497,222.57c41.64,0,75.396,33.756,75.396,75.396
		s-33.756,75.396-75.396,75.396c-41.64,0-75.396-33.756-75.396-75.396S85.857,222.57,127.497,222.57z M385.003,373.362
		c-41.64,0-75.396-33.756-75.396-75.396s33.756-75.396,75.396-75.396s75.396,33.756,75.396,75.396S426.644,373.362,385.003,373.362z
		"/>
	<path fill="#FFD000" d="M385.003,222.57c-41.64,0-75.396,33.756-75.396,75.396s33.756,75.396,75.396,75.396
		s75.396-33.756,75.396-75.396S426.644,222.57,385.003,222.57z M385.003,344.041c-11.049,0-20.005-20.629-20.005-46.076
		s8.957-46.075,20.005-46.075s20.005,20.629,20.005,46.075S396.052,344.041,385.003,344.041z"/>
	<ellipse cx="385.003" cy="297.966" rx="20.005" ry="46.075"/>
	<path fill="#FFD000" d="M127.497,373.362c41.64,0,75.396-33.756,75.396-75.396s-33.756-75.396-75.396-75.396
		c-41.64,0-75.396,33.756-75.396,75.396S85.857,373.362,127.497,373.362z M127.497,251.89c11.049,0,20.005,20.629,20.005,46.075
		s-8.957,46.076-20.005,46.076c-11.049,0-20.005-20.629-20.005-46.076S116.449,251.89,127.497,251.89z"/>
	<ellipse cx="127.497" cy="297.966" rx="20.005" ry="46.075"/>
</g>
</svg>
