<svg id="Layer_1" data-name="Layer 1" xmlns="http://www.w3.org/2000/svg" viewBox="0 0 508.23 508.23"><defs><style>.cls-1{fill:#b5dccd;}.cls-2{fill:#1d1d1b;}</style></defs><title>logo</title><circle class="cls-1" cx="254.12" cy="254.12" r="254.12"/><path class="cls-2" d="M280.68,68.08l23-15.13s37,33.4,43.83,59.49c0,0,92.36,4.69,74.62,146.1,0,0-9.92,85.58-73.58,145.07,0,0-81.92,73.05-158.63,58.44,0,0-45.4-13-14.61-54.27,0,0,18.78-19.3,37-25.57,0,0,57.4-31.3,85.58-76.7,0,0,49.57-73.58,27.13-155C325,150.53,313.55,91,280.68,68.08Z" transform="translate(-1.93 -1.98)"/><path class="cls-2" d="M312.51,166.71s-16.7,99.14-93.93,126.8c0,0-28.18,16.17-79.32,16.17,0,0-65.22,3.13-38.09,44.36,0,0,8.87,17.22,53.23,22.43L181,378s66.79-25.57,102.8-88.19C283.81,289.85,321.38,229.32,312.51,166.71Z" transform="translate(-1.93 -1.98)"/></svg>